<svg xmlns="http://www.w3.org/2000/svg" xmlns:xlink="http://www.w3.org/1999/xlink" width="630" zoomAndPan="magnify" viewBox="0 0 472.5 472.499994" height="630" preserveAspectRatio="xMidYMid meet" version="1.0"><defs><g/><clipPath id="30076b190b"><path d="M 211.191406 332.84375 L 345 332.84375 L 345 404 L 211.191406 404 Z M 211.191406 332.84375 " clip-rule="nonzero"/></clipPath></defs><g fill="#ffffff" fill-opacity="1"><g transform="translate(45.026573, 213.527763)"><g><path d="M 36.59375 -73.375 L 45.3125 -73.375 C 46.71875 -73.375 47.265625 -72.703125 46.953125 -71.359375 L 31.453125 -1.65625 C 31.210938 -0.550781 30.539062 0 29.4375 0 L 20.265625 0 C 19.222656 0 18.550781 -0.550781 18.25 -1.65625 L 2.84375 -71.359375 C 2.539062 -72.703125 3.09375 -73.375 4.5 -73.375 L 13.203125 -73.375 C 14.304688 -73.375 14.976562 -72.820312 15.21875 -71.71875 L 24.859375 -22.5625 L 34.578125 -71.71875 C 34.878906 -72.820312 35.550781 -73.375 36.59375 -73.375 Z M 36.59375 -73.375 "/></g></g></g><g fill="#ffffff" fill-opacity="1"><g transform="translate(96.662315, 213.527763)"><g><path d="M 6.046875 -73.375 L 15.59375 -73.375 C 16.570312 -73.375 17.0625 -72.882812 17.0625 -71.90625 L 17.0625 -1.46875 C 17.0625 -0.488281 16.570312 0 15.59375 0 L 6.046875 0 C 5.066406 0 4.578125 -0.488281 4.578125 -1.46875 L 4.578125 -71.90625 C 4.578125 -72.882812 5.066406 -73.375 6.046875 -73.375 Z M 6.046875 -73.375 "/></g></g></g><g fill="#ffffff" fill-opacity="1"><g transform="translate(120.141447, 213.527763)"><g><path d="M 17.0625 -12.109375 L 17.0625 -71.90625 C 17.0625 -72.882812 16.570312 -73.375 15.59375 -73.375 L 6.046875 -73.375 C 5.066406 -73.375 4.578125 -72.882812 4.578125 -71.90625 L 4.578125 -1.46875 C 4.578125 -0.488281 5.066406 0 6.046875 0 L 38.890625 0 C 39.867188 0 40.359375 -0.488281 40.359375 -1.46875 L 40.359375 -10.640625 C 40.359375 -11.617188 39.867188 -12.109375 38.890625 -12.109375 Z M 17.0625 -12.109375 "/></g></g></g><g fill="#ffffff" fill-opacity="1"><g transform="translate(166.916279, 213.527763)"><g><path d="M 48.796875 0 L 39.078125 0 C 38.273438 0 37.785156 -0.425781 37.609375 -1.28125 L 35.03125 -14.671875 L 18.703125 -14.671875 L 16.234375 -1.28125 C 16.046875 -0.425781 15.554688 0 14.765625 0 L 4.953125 0 C 3.847656 0 3.453125 -0.519531 3.765625 -1.5625 L 18.984375 -72.09375 C 19.171875 -72.945312 19.691406 -73.375 20.546875 -73.375 L 33.296875 -73.375 C 34.148438 -73.375 34.671875 -72.945312 34.859375 -72.09375 L 50.078125 -1.5625 C 50.265625 -0.519531 49.835938 0 48.796875 0 Z M 32.75 -25.3125 L 26.875 -57.328125 L 21 -25.3125 Z M 32.75 -25.3125 "/></g></g></g><g fill="#ffffff" fill-opacity="1"><g transform="translate(222.495792, 213.527763)"><g><path d="M 6.046875 -73.375 L 15.59375 -73.375 C 16.570312 -73.375 17.0625 -72.882812 17.0625 -71.90625 L 17.0625 -1.46875 C 17.0625 -0.488281 16.570312 0 15.59375 0 L 6.046875 0 C 5.066406 0 4.578125 -0.488281 4.578125 -1.46875 L 4.578125 -71.90625 C 4.578125 -72.882812 5.066406 -73.375 6.046875 -73.375 Z M 6.046875 -73.375 "/></g></g></g><g fill="#ffffff" fill-opacity="1"><g transform="translate(245.974923, 213.527763)"><g><path d="M 32.75 -73.375 L 42.28125 -73.375 C 43.257812 -73.375 43.75 -72.882812 43.75 -71.90625 L 43.75 -1.46875 C 43.75 -0.488281 43.257812 0 42.28125 0 L 33.203125 0 C 32.347656 0 31.796875 -0.394531 31.546875 -1.1875 L 17.515625 -40.359375 L 17.0625 -40.359375 L 17.0625 -1.46875 C 17.0625 -0.488281 16.570312 0 15.59375 0 L 6.046875 0 C 5.066406 0 4.578125 -0.488281 4.578125 -1.46875 L 4.578125 -71.90625 C 4.578125 -72.882812 5.066406 -73.375 6.046875 -73.375 L 15.140625 -73.375 C 15.992188 -73.375 16.539062 -72.976562 16.78125 -72.1875 L 30.71875 -33.203125 L 31.28125 -33.203125 L 31.28125 -71.90625 C 31.28125 -72.882812 31.769531 -73.375 32.75 -73.375 Z M 32.75 -73.375 "/></g></g></g><g fill="#ffffff" fill-opacity="1"><g transform="translate(45.026573, 309.828815)"><g><path d="M 4.578125 -1.46875 L 4.578125 -71.90625 C 4.578125 -72.882812 5.066406 -73.375 6.046875 -73.375 L 28.0625 -73.375 C 32.40625 -73.375 35.691406 -72.253906 37.921875 -70.015625 C 40.148438 -67.785156 41.265625 -64.503906 41.265625 -60.171875 L 41.265625 -37.78125 C 41.265625 -33.507812 40.148438 -30.238281 37.921875 -27.96875 C 35.691406 -25.707031 32.40625 -24.578125 28.0625 -24.578125 L 17.0625 -24.578125 L 17.0625 -1.46875 C 17.0625 -0.488281 16.570312 0 15.59375 0 L 6.046875 0 C 5.066406 0 4.578125 -0.488281 4.578125 -1.46875 Z M 17.0625 -36.6875 L 25.125 -36.6875 C 27.570312 -36.6875 28.796875 -37.910156 28.796875 -40.359375 L 28.796875 -57.59375 C 28.796875 -60.039062 27.570312 -61.265625 25.125 -61.265625 L 17.0625 -61.265625 Z M 17.0625 -36.6875 "/></g></g></g><g fill="#ffffff" fill-opacity="1"><g transform="translate(92.718555, 309.828815)"><g><path d="M 41.1875 -71.90625 L 41.1875 -62.734375 C 41.1875 -61.691406 40.695312 -61.171875 39.71875 -61.171875 L 16.78125 -61.171875 L 16.78125 -42.828125 L 34.296875 -42.828125 C 35.273438 -42.828125 35.765625 -42.304688 35.765625 -41.265625 L 35.765625 -32.1875 C 35.765625 -31.15625 35.273438 -30.640625 34.296875 -30.640625 L 16.78125 -30.640625 L 16.78125 -12.109375 L 39.71875 -12.109375 C 40.695312 -12.109375 41.1875 -11.617188 41.1875 -10.640625 L 41.1875 -1.46875 C 41.1875 -0.488281 40.695312 0 39.71875 0 L 5.96875 0 C 5.039062 0 4.578125 -0.488281 4.578125 -1.46875 L 4.578125 -71.90625 C 4.578125 -72.882812 5.039062 -73.375 5.96875 -73.375 L 39.71875 -73.375 C 40.695312 -73.375 41.1875 -72.882812 41.1875 -71.90625 Z M 41.1875 -71.90625 "/></g></g></g><g fill="#ffffff" fill-opacity="1"><g transform="translate(140.318822, 309.828815)"><g><path d="M 4.21875 -73.375 L 37.96875 -73.375 C 38.945312 -73.375 39.4375 -72.882812 39.4375 -71.90625 L 39.4375 -62.734375 C 39.4375 -61.753906 38.945312 -61.265625 37.96875 -61.265625 L 27.328125 -61.265625 L 27.328125 -1.46875 C 27.328125 -0.488281 26.835938 0 25.859375 0 L 16.328125 0 C 15.347656 0 14.859375 -0.488281 14.859375 -1.46875 L 14.859375 -61.265625 L 4.21875 -61.265625 C 3.238281 -61.265625 2.75 -61.753906 2.75 -62.734375 L 2.75 -71.90625 C 2.75 -72.882812 3.238281 -73.375 4.21875 -73.375 Z M 4.21875 -73.375 "/></g></g></g><g fill="#ffffff" fill-opacity="1"><g transform="translate(184.342198, 309.828815)"><g><path d="M 6.046875 -73.375 L 15.59375 -73.375 C 16.570312 -73.375 17.0625 -72.882812 17.0625 -71.90625 L 17.0625 -1.46875 C 17.0625 -0.488281 16.570312 0 15.59375 0 L 6.046875 0 C 5.066406 0 4.578125 -0.488281 4.578125 -1.46875 L 4.578125 -71.90625 C 4.578125 -72.882812 5.066406 -73.375 6.046875 -73.375 Z M 6.046875 -73.375 "/></g></g></g><g fill="#ffffff" fill-opacity="1"><g transform="translate(207.821329, 309.828815)"><g><path d="M 4.21875 -73.375 L 37.96875 -73.375 C 38.945312 -73.375 39.4375 -72.882812 39.4375 -71.90625 L 39.4375 -62.734375 C 39.4375 -61.753906 38.945312 -61.265625 37.96875 -61.265625 L 27.328125 -61.265625 L 27.328125 -1.46875 C 27.328125 -0.488281 26.835938 0 25.859375 0 L 16.328125 0 C 15.347656 0 14.859375 -0.488281 14.859375 -1.46875 L 14.859375 -61.265625 L 4.21875 -61.265625 C 3.238281 -61.265625 2.75 -61.753906 2.75 -62.734375 L 2.75 -71.90625 C 2.75 -72.882812 3.238281 -73.375 4.21875 -73.375 Z M 4.21875 -73.375 "/></g></g></g><g fill="#ffffff" fill-opacity="1"><g transform="translate(45.026573, 406.129867)"><g><path d="M 4.578125 -1.46875 L 4.578125 -71.90625 C 4.578125 -72.882812 5.066406 -73.375 6.046875 -73.375 L 28.0625 -73.375 C 32.40625 -73.375 35.691406 -72.242188 37.921875 -69.984375 C 40.148438 -67.722656 41.265625 -64.421875 41.265625 -60.078125 L 41.265625 -13.203125 C 41.265625 -8.921875 40.148438 -5.648438 37.921875 -3.390625 C 35.691406 -1.128906 32.40625 0 28.0625 0 L 6.046875 0 C 5.066406 0 4.578125 -0.488281 4.578125 -1.46875 Z M 17.0625 -12.109375 L 25.5 -12.109375 C 27.945312 -12.109375 29.171875 -13.332031 29.171875 -15.78125 L 29.171875 -57.5 C 29.171875 -60.007812 27.945312 -61.265625 25.5 -61.265625 L 17.0625 -61.265625 Z M 17.0625 -12.109375 "/></g></g></g><g fill="#ffffff" fill-opacity="1"><g transform="translate(92.718555, 406.129867)"><g><path d="M 41.1875 -71.90625 L 41.1875 -62.734375 C 41.1875 -61.691406 40.695312 -61.171875 39.71875 -61.171875 L 16.78125 -61.171875 L 16.78125 -42.828125 L 34.296875 -42.828125 C 35.273438 -42.828125 35.765625 -42.304688 35.765625 -41.265625 L 35.765625 -32.1875 C 35.765625 -31.15625 35.273438 -30.640625 34.296875 -30.640625 L 16.78125 -30.640625 L 16.78125 -12.109375 L 39.71875 -12.109375 C 40.695312 -12.109375 41.1875 -11.617188 41.1875 -10.640625 L 41.1875 -1.46875 C 41.1875 -0.488281 40.695312 0 39.71875 0 L 5.96875 0 C 5.039062 0 4.578125 -0.488281 4.578125 -1.46875 L 4.578125 -71.90625 C 4.578125 -72.882812 5.039062 -73.375 5.96875 -73.375 L 39.71875 -73.375 C 40.695312 -73.375 41.1875 -72.882812 41.1875 -71.90625 Z M 41.1875 -71.90625 "/></g></g></g><g fill="#ffffff" fill-opacity="1"><g transform="translate(140.318822, 406.129867)"><g><path d="M 36.59375 -73.375 L 45.3125 -73.375 C 46.71875 -73.375 47.265625 -72.703125 46.953125 -71.359375 L 31.453125 -1.65625 C 31.210938 -0.550781 30.539062 0 29.4375 0 L 20.265625 0 C 19.222656 0 18.550781 -0.550781 18.25 -1.65625 L 2.84375 -71.359375 C 2.539062 -72.703125 3.09375 -73.375 4.5 -73.375 L 13.203125 -73.375 C 14.304688 -73.375 14.976562 -72.820312 15.21875 -71.71875 L 24.859375 -22.5625 L 34.578125 -71.71875 C 34.878906 -72.820312 35.550781 -73.375 36.59375 -73.375 Z M 36.59375 -73.375 "/></g></g></g><g fill="#ffffff" fill-opacity="1"><g transform="translate(39.838219, 94.802909)"><g><path d="M 6.390625 -3.25 L 15.609375 -3.25 L 15.609375 0 L 2.796875 0 L 2.796875 -21.3125 L 6.390625 -21.3125 Z M 6.390625 -3.25 "/></g></g></g><g fill="#ffffff" fill-opacity="1"><g transform="translate(59.740202, 94.802909)"><g><path d="M 18.015625 -18.078125 L 6.390625 -18.078125 L 6.390625 -12.328125 L 16.796875 -12.328125 L 16.796875 -9.09375 L 6.390625 -9.09375 L 6.390625 -3.21875 L 18.390625 -3.21875 L 18.390625 0 L 2.796875 0 L 2.796875 -21.3125 L 18.015625 -21.3125 Z M 18.015625 -18.078125 "/></g></g></g><g clip-path="url(#30076b190b)"><path fill="#ffde59" d="M 211.589844 332.84375 L 211.589844 350.644531 L 234.5 368.371094 L 211.589844 386.027344 L 211.589844 403.828125 L 257.480469 368.300781 Z M 255.21875 332.84375 L 255.21875 350.644531 L 278.128906 368.371094 L 255.21875 386.027344 L 255.21875 403.828125 L 301.109375 368.300781 Z M 298.847656 332.84375 L 298.847656 350.644531 L 321.757812 368.371094 L 298.847656 386.027344 L 298.847656 403.828125 L 344.738281 368.300781 Z M 298.847656 332.84375 " fill-opacity="1" fill-rule="nonzero"/></g></svg>